<?xml version="1.0" encoding="UTF-8" standalone="no"?>
<svg width="396px" height="381px" viewBox="0 0 396 381" version="1.1" xmlns="http://www.w3.org/2000/svg" xmlns:xlink="http://www.w3.org/1999/xlink">
    <!-- Generator: Sketch 41.2 (35397) - http://www.bohemiancoding.com/sketch -->
    <title>Brand Diagram</title>
    <desc>Created with Sketch.</desc>
    <defs>
        <linearGradient x1="100%" y1="0%" x2="0%" y2="100%" id="linearGradient-1">
            <stop stop-color="#FFFFFF" stop-opacity="0" offset="0%"></stop>
            <stop stop-color="#FFFFFF" offset="100%"></stop>
        </linearGradient>
        <radialGradient cx="50%" cy="24.9508795%" fx="50%" fy="24.9508795%" r="71.4703406%" id="radialGradient-2">
            <stop stop-color="#F7F7FA" offset="0%"></stop>
            <stop stop-color="#FFFFFF" offset="100%"></stop>
        </radialGradient>
        <path d="M5.21564475,14.0693942 C9.91793864,14.0693942 11.8276038,10.6986018 11.8276038,7.13938008 C11.8276038,3.62203154 10.0616769,0.209365985 5.21564475,0.209365985 L0.451748758,0.209365985 C0.143738241,0.209365985 0,0.355922174 0,0.669971152 L0,13.608789 C0,13.922838 0.143738241,14.0693942 0.451748758,14.0693942 L5.21564475,14.0693942 Z M5.01030441,2.63801141 C7.67972889,2.63801141 8.5832264,4.77354445 8.5832264,7.13938008 C8.5832264,9.50521571 7.67972889,11.6407488 5.01030441,11.6407488 L3.12117324,11.6407488 L3.12117324,2.63801141 L5.01030441,2.63801141 Z M36.4205321,14.0693942 C36.7285426,14.0693942 36.8722808,13.922838 36.8722808,13.608789 L36.8722808,12.0594807 C36.8722808,11.7454318 36.7285426,11.5988756 36.4205321,11.5988756 L30.9584789,11.5988756 L30.9584789,8.290893 L35.6607728,8.290893 C35.9687833,8.290893 36.1125216,8.14433681 36.1125216,7.83028783 L36.1125216,6.28097955 C36.1125216,5.96693057 35.9687833,5.82037438 35.6607728,5.82037438 L30.9584789,5.82037438 L30.9584789,2.67988461 L36.4205321,2.67988461 C36.7285426,2.67988461 36.8722808,2.53332842 36.8722808,2.21927944 L36.8722808,0.669971152 C36.8722808,0.355922174 36.7285426,0.209365985 36.4205321,0.209365985 L28.2890544,0.209365985 C27.9810439,0.209365985 27.8373057,0.355922174 27.8373057,0.669971152 L27.8373057,13.608789 C27.8373057,13.922838 27.9810439,14.0693942 28.2890544,14.0693942 L36.4205321,14.0693942 Z M62.7383192,9.88207449 C62.7383192,6.9300141 60.3563712,6.30191614 57.8922871,5.69475479 C56.619177,5.38070581 55.6746114,5.17133983 55.6746114,4.06170011 C55.6746114,3.20329957 56.2290303,2.57520161 57.8717531,2.57520161 C59.1037951,2.57520161 60.0894288,2.93112379 60.828654,3.41266555 C61.0955965,3.60109494 61.2804028,3.55922174 61.424141,3.26610936 L62.2865705,1.67492788 C62.4303087,1.4027521 62.3687066,1.19338611 62.1222982,1.02589333 C61.2393347,0.460605167 59.8224863,0 58.0154913,0 C54.7300458,0 52.5534381,1.52837169 52.5534381,4.29200269 C52.5534381,7.51623886 55.5514072,8.06059042 57.3789362,8.50025899 C58.7547165,8.83524456 59.617146,9.23303993 59.617146,10.2589333 C59.617146,11.2429534 58.7957846,11.7035586 57.3584022,11.7035586 C55.9826219,11.7035586 54.85325,11.2848266 53.9497525,10.6148554 C53.7033441,10.4054894 53.5185378,10.4473626 53.3542655,10.7195384 L52.4302339,12.2897833 C52.2659616,12.5619591 52.3070297,12.7713251 52.5534381,12.9388179 C53.5390718,13.6506622 55.1612605,14.2787602 57.255732,14.2787602 C60.6027796,14.2787602 62.7383192,12.6666421 62.7383192,9.88207449 Z M81.2531733,14.0693942 C81.5611838,14.0693942 81.704922,13.922838 81.704922,13.608789 L81.704922,0.669971152 C81.704922,0.355922174 81.5611838,0.209365985 81.2531733,0.209365985 L79.0354975,0.209365985 C78.727487,0.209365985 78.5837488,0.355922174 78.5837488,0.669971152 L78.5837488,13.608789 C78.5837488,13.922838 78.727487,14.0693942 79.0354975,14.0693942 L81.2531733,14.0693942 Z M109.439558,13.1691204 C109.7065,13.0225643 109.829704,12.8131983 109.829704,12.4991493 L109.829704,6.67877492 C109.829704,6.36472594 109.685966,6.21816975 109.377955,6.21816975 L104.8194,6.21816975 C104.511389,6.21816975 104.367651,6.36472594 104.367651,6.67877492 L104.367651,8.22808321 C104.367651,8.54213218 104.511389,8.68868837 104.8194,8.68868837 L106.831735,8.68868837 L106.831735,11.26389 C106.174646,11.577939 105.476489,11.7035586 104.757798,11.7035586 C102.129441,11.7035586 100.959001,9.96582088 100.959001,7.30687287 C100.959001,4.58511507 102.170509,2.61707481 104.860468,2.61707481 C106.051442,2.61707481 106.975473,3.01487018 107.776301,3.74765113 C108.022709,3.95701711 108.186981,3.93608052 108.392322,3.68484133 L109.542228,2.21927944 C109.727034,1.98897686 109.7065,1.77961087 109.480626,1.57024489 C108.207515,0.41873197 106.564793,0 104.798866,0 C99.6242891,0 97.7146239,3.70577793 97.7146239,7.28593627 C97.7146239,11.0126508 99.7680273,14.2787602 104.655128,14.2787602 C106.318384,14.2787602 108.043243,13.9019014 109.439558,13.1691204 Z M128.898977,14.0693942 C129.206988,14.0693942 129.350726,13.922838 129.350726,13.608789 L129.350726,4.35481249 L134.545837,13.6715988 C134.710109,13.9647112 134.894915,14.0693942 135.22346,14.0693942 L137.954486,14.0693942 C138.262497,14.0693942 138.406235,13.922838 138.406235,13.608789 L138.406235,0.669971152 C138.406235,0.355922174 138.262497,0.209365985 137.954486,0.209365985 L135.921617,0.209365985 C135.613606,0.209365985 135.469868,0.355922174 135.469868,0.669971152 L135.469868,9.92394768 L130.274757,0.607161356 C130.110485,0.314048977 129.925679,0.209365985 129.597134,0.209365985 L126.866108,0.209365985 C126.558097,0.209365985 126.414359,0.355922174 126.414359,0.669971152 L126.414359,13.608789 C126.414359,13.922838 126.558097,14.0693942 126.866108,14.0693942 L128.898977,14.0693942 Z" id="path-3"></path>
        <path d="M31.0417955,34.9424609 C31.6648973,34.3648996 31.7215429,33.7873382 31.2117324,33.1520208 L28.0962237,29.2823598 C27.5297676,28.5892862 27.0199571,28.5315301 26.3402097,29.1668475 C24.1310308,31.1883122 21.185459,32.1701665 18.3531784,32.1701665 C12.122161,32.1701665 8.95000674,27.4341635 8.95000674,20.2146468 C8.95000674,12.8796178 12.2354523,7.21951672 18.5797608,7.21951672 C21.2421046,7.21951672 23.7911572,8.20137099 25.8303992,10.1073234 C26.4535009,10.7426409 26.9633115,10.6848847 27.473122,9.99181114 L30.4753394,6.06439404 C30.9851499,5.37132044 30.9285043,4.7937591 30.3054026,4.15844163 C27.3031851,1.32839108 23.6778659,-4.54747351e-13 18.6930521,-4.54747351e-13 C4.75823143,-4.54747351e-13 0,10.2805918 0,20.1568907 C0,30.6107509 5.32468756,39.3896832 18.1265959,39.3896832 C23.1114098,39.3896832 27.5864132,38.0612921 31.0417955,34.9424609 Z M44.5800969,19.6948416 C44.5800969,12.7063494 47.7522512,7.16176059 54.0965597,7.16176059 C60.4408683,7.16176059 63.6130226,12.7063494 63.6130226,19.6948416 C63.6130226,26.6833338 60.4408683,32.2279226 54.0965597,32.2279226 C47.7522512,32.2279226 44.5800969,26.6833338 44.5800969,19.6948416 Z M72.5630293,19.6948416 C72.5630293,10.0495673 67.5215699,-4.54747351e-13 54.0965597,-4.54747351e-13 C41.0680689,-4.54747351e-13 35.6300901,9.93405501 35.6300901,19.6948416 C35.6300901,29.3401159 40.6715496,39.3896832 54.0965597,39.3896832 C67.1250506,39.3896832 72.5630293,29.4556282 72.5630293,19.6948416 Z M86.3279131,38.8121219 C87.1775973,38.8121219 87.5741166,38.4078289 87.5741166,37.5414869 L87.5741166,25.1816743 L91.9924744,25.1816743 C95.6177936,28.9935791 98.0535549,33.9028505 99.356404,37.5992431 C99.639632,38.5233412 100.092797,38.8121219 101.055772,38.8121219 L107.909891,38.8121219 C108.70293,38.8121219 109.042804,38.4078289 108.759576,37.5992431 C107.060207,32.805484 104.171281,26.9143583 100.206088,23.1024535 C105.020965,21.1965011 107.060207,17.5578647 107.060207,12.7641056 C107.060207,6.00663791 102.868432,0.577561338 91.3693726,0.577561338 L80.210187,0.577561338 C79.3605028,0.577561338 78.9639835,0.981854274 78.9639835,1.84819628 L78.9639835,37.5414869 C78.9639835,38.4078289 79.3605028,38.8121219 80.210187,38.8121219 L86.3279131,38.8121219 Z M87.5741166,7.16176059 L91.7658919,7.16176059 C96.5241233,7.16176059 98.0535549,9.7607866 98.0535549,12.9951301 C98.0535549,16.2294736 96.4108321,18.8284996 91.312727,18.8284996 L87.5741166,18.8284996 L87.5741166,7.16176059 Z M138.27194,38.8121219 C139.121624,38.8121219 139.518143,38.4078289 139.518143,37.5414869 L139.518143,33.267533 C139.518143,32.401191 139.121624,31.9968981 138.27194,31.9968981 L123.204207,31.9968981 L123.204207,22.871429 L136.176052,22.871429 C137.025736,22.871429 137.422255,22.467136 137.422255,21.600794 L137.422255,17.3268401 C137.422255,16.4604981 137.025736,16.0562052 136.176052,16.0562052 L123.204207,16.0562052 L123.204207,7.39278512 L138.27194,7.39278512 C139.121624,7.39278512 139.518143,6.98849218 139.518143,6.12215018 L139.518143,1.84819628 C139.518143,0.981854274 139.121624,0.577561338 138.27194,0.577561338 L115.840277,0.577561338 C114.990593,0.577561338 114.594074,0.981854274 114.594074,1.84819628 L114.594074,37.5414869 C114.594074,38.4078289 114.990593,38.8121219 115.840277,38.8121219 L138.27194,38.8121219 Z" id="path-5"></path>
    </defs>
    <g id="Core-Website" stroke="none" stroke-width="1" fill="none" fill-rule="evenodd">
        <g id="V3" transform="translate(-701.000000, -2382.000000)">
            <g id="4-Core" transform="translate(0.000000, 2303.000000)">
                <g id="Brand-Diagram" transform="translate(701.000000, 77.500000)">
                    <path d="M152.364726,189.788212 L85.669749,227.419439" id="Line" stroke="url(#linearGradient-1)" stroke-width="3" stroke-linecap="round" transform="translate(119.097709, 208.788212) rotate(-1.000000) translate(-119.097709, -208.788212) "></path>
                    <path d="M308.845259,182.121222 L255.188098,236.874386" id="Line" stroke="url(#linearGradient-1)" stroke-width="3" stroke-linecap="round" transform="translate(282.050905, 209.822223) scale(-1, 1) rotate(15.000000) translate(-282.050905, -209.822223) "></path>
                    <path d="M201,219 L201,304" id="Line" stroke="url(#linearGradient-1)" stroke-width="3" stroke-linecap="round"></path>
                    <path d="M149.931281,134.151965 L85.6537389,94.8672941" id="Line" stroke="url(#linearGradient-1)" stroke-width="3" stroke-linecap="round" transform="translate(117.773207, 114.159985) rotate(-2.000000) translate(-117.773207, -114.159985) "></path>
                    <path d="M309.871125,87.8042408 L254.235341,141.565781" id="Line" stroke="url(#linearGradient-1)" stroke-width="3" stroke-linecap="round" transform="translate(282.258891, 114.491017) scale(-1, -1) rotate(14.000000) translate(-282.258891, -114.491017) "></path>
                    <path d="M201,29 L201,104" id="Line" stroke="url(#linearGradient-1)" stroke-width="3" stroke-linecap="round" transform="translate(201.500000, 66.500000) scale(1, -1) translate(-201.500000, -66.500000) "></path>
                    <g id="Logo" transform="translate(132.000000, 321.788185)">
                        <g>
                            <g id="Design" transform="translate(0.718655, 45.976138)">
                                <mask id="mask-4" fill="white">
                                    <use xlink:href="#path-3"></use>
                                </mask>
                                <use id="DESIGN" fill="#FFFFFF" xlink:href="#path-3"></use>
                                <path d="M5.21564475,14.0693942 C9.91793864,14.0693942 11.8276038,10.6986018 11.8276038,7.13938008 C11.8276038,3.62203154 10.0616769,0.209365985 5.21564475,0.209365985 L0.451748758,0.209365985 C0.143738241,0.209365985 0,0.355922174 0,0.669971152 L0,13.608789 C0,13.922838 0.143738241,14.0693942 0.451748758,14.0693942 L5.21564475,14.0693942 Z M5.01030441,2.63801141 C7.67972889,2.63801141 8.5832264,4.77354445 8.5832264,7.13938008 C8.5832264,9.50521571 7.67972889,11.6407488 5.01030441,11.6407488 L3.12117324,11.6407488 L3.12117324,2.63801141 L5.01030441,2.63801141 Z M36.4205321,14.0693942 C36.7285426,14.0693942 36.8722808,13.922838 36.8722808,13.608789 L36.8722808,12.0594807 C36.8722808,11.7454318 36.7285426,11.5988756 36.4205321,11.5988756 L30.9584789,11.5988756 L30.9584789,8.290893 L35.6607728,8.290893 C35.9687833,8.290893 36.1125216,8.14433681 36.1125216,7.83028783 L36.1125216,6.28097955 C36.1125216,5.96693057 35.9687833,5.82037438 35.6607728,5.82037438 L30.9584789,5.82037438 L30.9584789,2.67988461 L36.4205321,2.67988461 C36.7285426,2.67988461 36.8722808,2.53332842 36.8722808,2.21927944 L36.8722808,0.669971152 C36.8722808,0.355922174 36.7285426,0.209365985 36.4205321,0.209365985 L28.2890544,0.209365985 C27.9810439,0.209365985 27.8373057,0.355922174 27.8373057,0.669971152 L27.8373057,13.608789 C27.8373057,13.922838 27.9810439,14.0693942 28.2890544,14.0693942 L36.4205321,14.0693942 Z M62.7383192,9.88207449 C62.7383192,6.9300141 60.3563712,6.30191614 57.8922871,5.69475479 C56.619177,5.38070581 55.6746114,5.17133983 55.6746114,4.06170011 C55.6746114,3.20329957 56.2290303,2.57520161 57.8717531,2.57520161 C59.1037951,2.57520161 60.0894288,2.93112379 60.828654,3.41266555 C61.0955965,3.60109494 61.2804028,3.55922174 61.424141,3.26610936 L62.2865705,1.67492788 C62.4303087,1.4027521 62.3687066,1.19338611 62.1222982,1.02589333 C61.2393347,0.460605167 59.8224863,0 58.0154913,0 C54.7300458,0 52.5534381,1.52837169 52.5534381,4.29200269 C52.5534381,7.51623886 55.5514072,8.06059042 57.3789362,8.50025899 C58.7547165,8.83524456 59.617146,9.23303993 59.617146,10.2589333 C59.617146,11.2429534 58.7957846,11.7035586 57.3584022,11.7035586 C55.9826219,11.7035586 54.85325,11.2848266 53.9497525,10.6148554 C53.7033441,10.4054894 53.5185378,10.4473626 53.3542655,10.7195384 L52.4302339,12.2897833 C52.2659616,12.5619591 52.3070297,12.7713251 52.5534381,12.9388179 C53.5390718,13.6506622 55.1612605,14.2787602 57.255732,14.2787602 C60.6027796,14.2787602 62.7383192,12.6666421 62.7383192,9.88207449 Z M81.2531733,14.0693942 C81.5611838,14.0693942 81.704922,13.922838 81.704922,13.608789 L81.704922,0.669971152 C81.704922,0.355922174 81.5611838,0.209365985 81.2531733,0.209365985 L79.0354975,0.209365985 C78.727487,0.209365985 78.5837488,0.355922174 78.5837488,0.669971152 L78.5837488,13.608789 C78.5837488,13.922838 78.727487,14.0693942 79.0354975,14.0693942 L81.2531733,14.0693942 Z M109.439558,13.1691204 C109.7065,13.0225643 109.829704,12.8131983 109.829704,12.4991493 L109.829704,6.67877492 C109.829704,6.36472594 109.685966,6.21816975 109.377955,6.21816975 L104.8194,6.21816975 C104.511389,6.21816975 104.367651,6.36472594 104.367651,6.67877492 L104.367651,8.22808321 C104.367651,8.54213218 104.511389,8.68868837 104.8194,8.68868837 L106.831735,8.68868837 L106.831735,11.26389 C106.174646,11.577939 105.476489,11.7035586 104.757798,11.7035586 C102.129441,11.7035586 100.959001,9.96582088 100.959001,7.30687287 C100.959001,4.58511507 102.170509,2.61707481 104.860468,2.61707481 C106.051442,2.61707481 106.975473,3.01487018 107.776301,3.74765113 C108.022709,3.95701711 108.186981,3.93608052 108.392322,3.68484133 L109.542228,2.21927944 C109.727034,1.98897686 109.7065,1.77961087 109.480626,1.57024489 C108.207515,0.41873197 106.564793,0 104.798866,0 C99.6242891,0 97.7146239,3.70577793 97.7146239,7.28593627 C97.7146239,11.0126508 99.7680273,14.2787602 104.655128,14.2787602 C106.318384,14.2787602 108.043243,13.9019014 109.439558,13.1691204 Z M128.898977,14.0693942 C129.206988,14.0693942 129.350726,13.922838 129.350726,13.608789 L129.350726,4.35481249 L134.545837,13.6715988 C134.710109,13.9647112 134.894915,14.0693942 135.22346,14.0693942 L137.954486,14.0693942 C138.262497,14.0693942 138.406235,13.922838 138.406235,13.608789 L138.406235,0.669971152 C138.406235,0.355922174 138.262497,0.209365985 137.954486,0.209365985 L135.921617,0.209365985 C135.613606,0.209365985 135.469868,0.355922174 135.469868,0.669971152 L135.469868,9.92394768 L130.274757,0.607161356 C130.110485,0.314048977 129.925679,0.209365985 129.597134,0.209365985 L126.866108,0.209365985 C126.558097,0.209365985 126.414359,0.355922174 126.414359,0.669971152 L126.414359,13.608789 C126.414359,13.922838 126.558097,14.0693942 126.866108,14.0693942 L128.898977,14.0693942 Z" id="DESIGN" fill="#FFFFFF" mask="url(#mask-4)"></path>
                            </g>
                            <g id="Core">
                                <mask id="mask-6" fill="white">
                                    <use xlink:href="#path-5"></use>
                                </mask>
                                <use id="CORE" fill="#FFFFFF" xlink:href="#path-5"></use>
                                <path d="M31.0417955,34.9424609 C31.6648973,34.3648996 31.7215429,33.7873382 31.2117324,33.1520208 L28.0962237,29.2823598 C27.5297676,28.5892862 27.0199571,28.5315301 26.3402097,29.1668475 C24.1310308,31.1883122 21.185459,32.1701665 18.3531784,32.1701665 C12.122161,32.1701665 8.95000674,27.4341635 8.95000674,20.2146468 C8.95000674,12.8796178 12.2354523,7.21951672 18.5797608,7.21951672 C21.2421046,7.21951672 23.7911572,8.20137099 25.8303992,10.1073234 C26.4535009,10.7426409 26.9633115,10.6848847 27.473122,9.99181114 L30.4753394,6.06439404 C30.9851499,5.37132044 30.9285043,4.7937591 30.3054026,4.15844163 C27.3031851,1.32839108 23.6778659,-4.54747351e-13 18.6930521,-4.54747351e-13 C4.75823143,-4.54747351e-13 0,10.2805918 0,20.1568907 C0,30.6107509 5.32468756,39.3896832 18.1265959,39.3896832 C23.1114098,39.3896832 27.5864132,38.0612921 31.0417955,34.9424609 Z M44.5800969,19.6948416 C44.5800969,12.7063494 47.7522512,7.16176059 54.0965597,7.16176059 C60.4408683,7.16176059 63.6130226,12.7063494 63.6130226,19.6948416 C63.6130226,26.6833338 60.4408683,32.2279226 54.0965597,32.2279226 C47.7522512,32.2279226 44.5800969,26.6833338 44.5800969,19.6948416 Z M72.5630293,19.6948416 C72.5630293,10.0495673 67.5215699,-4.54747351e-13 54.0965597,-4.54747351e-13 C41.0680689,-4.54747351e-13 35.6300901,9.93405501 35.6300901,19.6948416 C35.6300901,29.3401159 40.6715496,39.3896832 54.0965597,39.3896832 C67.1250506,39.3896832 72.5630293,29.4556282 72.5630293,19.6948416 Z M86.3279131,38.8121219 C87.1775973,38.8121219 87.5741166,38.4078289 87.5741166,37.5414869 L87.5741166,25.1816743 L91.9924744,25.1816743 C95.6177936,28.9935791 98.0535549,33.9028505 99.356404,37.5992431 C99.639632,38.5233412 100.092797,38.8121219 101.055772,38.8121219 L107.909891,38.8121219 C108.70293,38.8121219 109.042804,38.4078289 108.759576,37.5992431 C107.060207,32.805484 104.171281,26.9143583 100.206088,23.1024535 C105.020965,21.1965011 107.060207,17.5578647 107.060207,12.7641056 C107.060207,6.00663791 102.868432,0.577561338 91.3693726,0.577561338 L80.210187,0.577561338 C79.3605028,0.577561338 78.9639835,0.981854274 78.9639835,1.84819628 L78.9639835,37.5414869 C78.9639835,38.4078289 79.3605028,38.8121219 80.210187,38.8121219 L86.3279131,38.8121219 Z M87.5741166,7.16176059 L91.7658919,7.16176059 C96.5241233,7.16176059 98.0535549,9.7607866 98.0535549,12.9951301 C98.0535549,16.2294736 96.4108321,18.8284996 91.312727,18.8284996 L87.5741166,18.8284996 L87.5741166,7.16176059 Z M138.27194,38.8121219 C139.121624,38.8121219 139.518143,38.4078289 139.518143,37.5414869 L139.518143,33.267533 C139.518143,32.401191 139.121624,31.9968981 138.27194,31.9968981 L123.204207,31.9968981 L123.204207,22.871429 L136.176052,22.871429 C137.025736,22.871429 137.422255,22.467136 137.422255,21.600794 L137.422255,17.3268401 C137.422255,16.4604981 137.025736,16.0562052 136.176052,16.0562052 L123.204207,16.0562052 L123.204207,7.39278512 L138.27194,7.39278512 C139.121624,7.39278512 139.518143,6.98849218 139.518143,6.12215018 L139.518143,1.84819628 C139.518143,0.981854274 139.121624,0.577561338 138.27194,0.577561338 L115.840277,0.577561338 C114.990593,0.577561338 114.594074,0.981854274 114.594074,1.84819628 L114.594074,37.5414869 C114.594074,38.4078289 114.990593,38.8121219 115.840277,38.8121219 L138.27194,38.8121219 Z" id="CORE" fill="#FFFFFF" mask="url(#mask-6)"></path>
                            </g>
                        </g>
                    </g>
                    <path d="M258,161.62585 C258,129.300208 232.204861,103 200.5,103 C168.795139,103 143,129.300208 143,161.62585 C143,194.060059 168.795139,220.251701 200.5,220.251701 C232.204861,220.251701 258,194.060059 258,161.62585 L258,161.62585 L258,161.62585 L258,161.62585 Z M255.258102,161.62585 C255.258102,192.485847 230.767361,217.456116 200.5,217.456116 C170.232639,217.456116 145.715278,192.485847 145.715278,161.62585 C145.715278,130.765854 170.232639,105.768443 200.5,105.768443 C230.767361,105.768443 255.258102,130.928704 255.258102,161.62585 L255.258102,161.62585 L255.258102,161.62585 L255.258102,161.62585 Z M251.770833,161.62585 C251.770833,143.088139 242.506944,123.926172 222.621528,117.792171 C218.49537,116.489374 215.008102,115.675126 210.988426,115.675126 C201.777778,115.675126 201.458333,121.022021 197.145833,121.022021 C194.77662,121.022021 193.179398,119.257817 193.179398,117.140772 C193.179398,113.422373 197.491898,110.491081 204.333333,110.491081 C210.722222,110.491081 215.646991,112.119577 216.578704,112.580984 L216.738426,112.119577 C215.008102,111.441037 208.965278,109.323992 200.52662,109.323992 C182.185185,109.323992 163.550926,118.932118 157.534722,139.044041 C156.256944,143.250989 155.431713,146.860821 155.431713,150.904919 C155.431713,160.350195 160.675926,160.784461 160.675926,165.1814 C160.675926,167.488435 158.945602,169.116931 156.869213,169.116931 C153.222222,169.116931 150.347222,164.855701 150.347222,157.71746 C150.347222,151.230619 151.944444,146.182282 152.237269,145.232326 L151.784722,145.069476 C151.278935,147.023671 149.202546,153.049106 149.202546,161.652992 C149.202546,180.489261 158.626157,199.488379 178.351852,205.649521 C182.50463,206.952318 186.018519,207.739424 189.984954,207.739424 C199.248843,207.739424 199.515046,202.22968 203.827546,202.22968 C206.090278,202.22968 207.847222,204.021026 207.847222,206.273778 C207.847222,209.856469 203.667824,212.787762 196.666667,212.787762 C190.304398,212.787762 185.193287,211.159266 184.421296,210.833567 L184.261574,211.322115 C186.018519,212.109222 192.087963,213.927709 200.52662,213.927709 C218.841435,213.927709 237.635417,204.482433 243.518519,184.20766 C244.796296,180.163561 245.568287,176.445163 245.568287,172.509631 C245.568287,162.955789 240.324074,162.602948 240.324074,158.233151 C240.324074,155.817549 241.921296,154.189053 244.130787,154.189053 C247.804398,154.189053 250.679398,158.585992 250.679398,165.724232 C250.679398,172.075365 249.082176,177.096561 248.762731,178.209366 L249.241898,178.372216 C249.854167,176.418021 251.770833,170.392586 251.770833,161.62585 L251.770833,161.62585 L251.770833,161.62585 L251.770833,161.62585 Z M232.471065,177.205127 C232.471065,184.506217 226.295139,192.160148 217.190972,192.160148 C206.22338,192.160148 200.633102,182.714872 200.633102,174.273835 C200.633102,162.412957 208.565972,157.391761 211.920139,155.600416 C211.28125,155.111867 210.775463,154.460469 210.322917,153.646221 C206.462963,156.414664 203.002315,158.857408 195.655093,163.091497 C195.335648,168.275542 194.883102,173.948136 193.578704,177.883667 C190.863426,186.161855 185.299769,192.160148 177.979167,192.160148 C171.803241,192.160148 168.768519,187.600359 168.768519,182.714872 C168.768519,179.159322 170.818287,174.599534 174.518519,171.179693 C179.150463,166.945604 184.234954,164.367152 191.236111,160.621611 C191.395833,159.671655 191.555556,158.694558 191.715278,157.527469 C189.958333,159.155965 187.429398,159.834505 185.326389,159.834505 C181.998843,159.834505 179.256944,156.903212 178.644676,153.836212 C174.172454,153.510513 170.818287,150.253521 170.658565,145.069476 C170.658565,141.351077 172.096065,138.094085 174.518519,138.094085 C175.450231,138.094085 175.796296,138.881192 175.796296,139.559732 C175.796296,140.183988 174.971065,142.328175 174.971065,144.390936 C174.971065,146.535122 175.956019,149.276424 178.484954,149.276424 C178.484954,140.835387 184.554398,129.951606 191.715278,129.951606 C196.453704,129.951606 197.119213,133.534297 197.119213,135.162793 C197.119213,142.816723 189.638889,151.230619 183.569444,153.320522 C183.729167,153.999062 184.394676,155.790407 186.311343,155.790407 C188.680556,155.790407 191.555556,153.483371 192.993056,151.692026 C193.605324,148.326468 196.027778,143.44098 199.222222,143.44098 C200.5,143.44098 201.112269,144.390936 201.112269,145.558025 C201.112269,147.973627 198.583333,151.067769 196.640046,153.157672 C196.347222,154.786168 196.1875,156.577513 196.1875,158.04316 C201.751157,154.623318 204.626157,152.859114 208.752315,149.764972 C208.43287,148.625025 208.43287,147.295087 208.43287,146.019432 C208.43287,138.419785 213.384259,129.951606 219.90625,129.951606 C223.606481,129.951606 225.469907,132.584341 225.469907,135.515634 C225.469907,141.025378 220.837963,145.856582 214.342593,150.932061 C214.84838,152.234858 215.62037,153.347663 216.871528,154.026203 C217.03125,153.700504 219.107639,153.347663 220.837963,153.347663 C222.75463,153.347663 225.469907,153.863354 225.469907,155.817549 C225.469907,158.070301 222.435185,158.585992 220.065972,158.585992 C218.788194,158.748841 216.711806,158.260292 216.711806,158.260292 C213.224537,159.210248 206.516204,163.308629 206.516204,173.67672 C206.516204,180.679252 210.828704,187.166094 217.537037,187.166094 C222.621528,187.166094 226.747685,183.284845 226.907407,177.259411 C226.907407,173.378162 225.310185,169.279781 221.503472,169.279781 C219.586806,169.279781 217.856481,170.745427 217.856481,172.862472 C217.696759,176.119463 220.065972,176.445163 220.065972,178.535066 C220.065972,180.000712 218.974537,180.679252 217.856481,180.679252 C214.662037,180.679252 212.239583,177.42226 212.239583,173.378162 C212.239583,168.492675 216.418981,164.448577 221.822917,164.448577 C228.850694,164.367152 232.471065,170.555436 232.471065,177.205127 L232.471065,177.205127 L232.471065,177.205127 L232.471065,177.205127 Z M220.731481,136.275598 C220.731481,135.488492 220.571759,134.484253 219.586806,134.484253 C217.217593,134.484253 213.41088,139.69544 213.41088,146.345131 C218.149306,142.111042 220.731481,138.528351 220.731481,136.275598 L220.731481,136.275598 L220.731481,136.275598 L220.731481,136.275598 Z M192.513889,135.597059 C192.513889,134.809952 192.061343,134.484253 191.395833,134.484253 C188.041667,134.484253 183.303241,143.413839 183.303241,148.760733 C188.547454,145.829441 192.513889,139.206891 192.513889,135.597059 L192.513889,135.597059 L192.513889,135.597059 L192.513889,135.597059 Z M190.623843,165.995648 C183.462963,169.551197 174.358796,175.902331 174.358796,182.877721 C174.358796,185.456173 175.636574,187.084669 178.005787,187.084669 C185.006944,187.084669 189.319444,175.739481 190.623843,165.995648 L190.623843,165.995648 L190.623843,165.995648 L190.623843,165.995648 Z" id="monogram-r:18" fill="#FFFFFF"></path>
                    <text id="COLOR" font-family="GEInspiraSans-Bold, GE Inspira Sans" font-size="18" font-weight="bold" letter-spacing="1.5" fill="#FFFFFF">
                        <tspan x="0.18" y="257">COLOR</tspan>
                    </text>
                    <text id="TONE" font-family="GEInspiraSans-Bold, GE Inspira Sans" font-size="18" font-weight="bold" letter-spacing="1.5" fill="#FFFFFF">
                        <tspan x="346.077" y="88">TONE</tspan>
                    </text>
                    <text id="VOICE" font-family="GEInspiraSans-Bold, GE Inspira Sans" font-size="18" font-weight="bold" letter-spacing="1.5" fill="#FFFFFF">
                        <tspan x="0.325" y="89">VOICE</tspan>
                    </text>
                    <text id="IMAGE" font-family="GEInspiraSans-Bold, GE Inspira Sans" font-size="18" font-weight="bold" letter-spacing="1.5" fill="#FFFFFF">
                        <tspan x="169.48" y="14">IMAGE</tspan>
                    </text>
                    <text id="FONT" font-family="GEInspiraSans-Bold, GE Inspira Sans" font-size="18" font-weight="bold" letter-spacing="1.5" fill="#FFFFFF">
                        <tspan x="346.158" y="256">FONT</tspan>
                    </text>
                </g>
            </g>
        </g>
    </g>
</svg>