<?xml version="1.0" encoding="UTF-8" standalone="no"?>
<svg width="560px" height="422px" viewBox="0 0 560 422" version="1.1" xmlns="http://www.w3.org/2000/svg" xmlns:xlink="http://www.w3.org/1999/xlink">
    <!-- Generator: Sketch 41.2 (35397) - http://www.bohemiancoding.com/sketch -->
    <title>circle</title>
    <desc>Created with Sketch.</desc>
    <defs>
        <path d="M32.1824726,92.6496195 L1.71755864,92.6496195 L1.71755864,87.3259836 L5.52874321,73.3456505 L13.3994683,73.3561076 L13.665688,74.1941657 C13.6540745,75.3339433 14.2527633,76.3923386 15.2339337,76.9665975 C16.215104,77.5408564 17.4278754,77.5426715 18.4107483,76.9713521 C19.3936212,76.4000327 19.9954533,75.3434341 19.9872278,74.2036268 L20.2551842,73.3655687 L28.3469734,73.3767727 L32.1824726,87.3518772 L32.1824726,92.6496195 L32.1824726,92.6496195 Z" id="path-1"></path>
        <mask id="mask-2" maskContentUnits="userSpaceOnUse" maskUnits="objectBoundingBox" x="0" y="0" width="30.464914" height="19.303969" fill="white">
            <use xlink:href="#path-1"></use>
        </mask>
        <polygon id="path-3" points="116.533681 92.6496195 86.069015 92.6496195 86.069015 87.3259836 89.8797034 73.3456505 112.69843 73.3767727 116.533681 87.3518772 116.533681 92.6496195"></polygon>
        <mask id="mask-4" maskContentUnits="userSpaceOnUse" maskUnits="objectBoundingBox" x="0" y="0" width="30.4646658" height="19.303969" fill="white">
            <use xlink:href="#path-3"></use>
        </mask>
        <polygon id="path-5" points="100.875099 48.5524756 94.4932688 41.0094546 65.5825023 41.0094546 59.2006724 48.5524756 52.8188424 41.0094546 22.2020865 41.0094546 15.8205047 48.5524756 9.4381785 41.0094546 0.348003341 41.0094546 0.348003341 0.0798018172 117.903236 0.0798018172 117.903236 41.0094546 107.256681 41.0094546"></polygon>
        <mask id="mask-6" maskContentUnits="userSpaceOnUse" maskUnits="objectBoundingBox" x="0" y="0" width="117.555233" height="48.4726737" fill="white">
            <use xlink:href="#path-5"></use>
        </mask>
    </defs>
    <g id="Page-1" stroke="none" stroke-width="1" fill="none" fill-rule="evenodd">
        <g id="V7" transform="translate(-330.000000, -1344.000000)">
            <g id="2" transform="translate(0.000000, 1259.000000)">
                <g id="idea-2" transform="translate(332.000000, 72.000000)">
                    <g id="circle">
                        <path d="M267.528005,433.113996 C373.858286,433.113996 460.056009,346.903292 460.056009,240.556998 C460.056009,134.210705 373.858286,48 267.528005,48 C161.197724,48 75,134.210705 75,240.556998 C75,346.903292 161.197724,433.113996 267.528005,433.113996 Z" id="Oval-6" stroke="#A5A6A8" stroke-width="2" stroke-linecap="round" stroke-linejoin="round" stroke-dasharray="45,20,6,194" transform="translate(267.528005, 240.556998) rotate(17.000000) translate(-267.528005, -240.556998) "></path>
                        <path d="M267.528005,433.113996 C373.858286,433.113996 460.056009,346.903292 460.056009,240.556998 C460.056009,134.210705 373.858286,48 267.528005,48 C161.197724,48 75,134.210705 75,240.556998 C75,346.903292 161.197724,433.113996 267.528005,433.113996 Z" id="Oval-6-Copy" stroke="#A5A6A8" stroke-width="2" stroke-linecap="round" stroke-linejoin="round" stroke-dasharray="20,100,2,30"></path>
                        <path d="M283.948771,432.053126 C389.874433,422.784436 468.231522,329.388031 458.964227,223.446417 C449.696933,117.504803 356.314591,39.1359145 250.388929,48.4046047 C144.463266,57.6732949 66.1061777,151.0697 75.3734723,257.011313 C84.6407669,362.952927 178.023109,441.321816 283.948771,432.053126 Z" id="Oval-6-Copy-2" stroke="#A5A6A8" stroke-width="2" stroke-linecap="round" stroke-linejoin="round" stroke-dasharray="1,20,10,100" transform="translate(267.168850, 240.228865) rotate(85.000000) translate(-267.168850, -240.228865) "></path>
                        <path d="M277.438354,355.352158 C341.344658,349.77928 388.61849,293.623903 383.027413,229.925613 C377.436336,166.227323 321.097577,119.107367 257.191273,124.680245 C193.284969,130.253123 146.011137,186.408501 151.602214,250.10679 C157.193291,313.80508 213.53205,360.925036 277.438354,355.352158 Z" id="Oval-6-Copy-3" stroke="#A5A6A8" stroke-width="2" stroke-linecap="round" stroke-linejoin="round" stroke-dasharray="32,70,1,103" transform="translate(267.314814, 240.016202) rotate(85.000000) translate(-267.314814, -240.016202) "></path>
                        <path d="M277.438354,355.352158 C341.344658,349.77928 388.61849,293.623903 383.027413,229.925613 C377.436336,166.227323 321.097577,119.107367 257.191273,124.680245 C193.284969,130.253123 146.011137,186.408501 151.602214,250.10679 C157.193291,313.80508 213.53205,360.925036 277.438354,355.352158 Z" id="Oval-6-Copy-4" stroke="#A5A6A8" stroke-width="2" stroke-linecap="round" stroke-linejoin="round" stroke-dasharray="32,70,1,103" transform="translate(267.314814, 240.016202) rotate(87.000000) translate(-267.314814, -240.016202) "></path>
                        <path d="M277.438354,355.352158 C341.344658,349.77928 388.61849,293.623903 383.027413,229.925613 C377.436336,166.227323 321.097577,119.107367 257.191273,124.680245 C193.284969,130.253123 146.011137,186.408501 151.602214,250.10679 C157.193291,313.80508 213.53205,360.925036 277.438354,355.352158 Z" id="Oval-6-Copy-5" stroke="#A5A6A8" stroke-width="2" stroke-linecap="round" stroke-linejoin="round" stroke-dasharray="32,70,1,103" transform="translate(267.314814, 240.016202) rotate(109.000000) translate(-267.314814, -240.016202) "></path>
                        <path d="M277.438354,355.352158 C341.344658,349.77928 388.61849,293.623903 383.027413,229.925613 C377.436336,166.227323 321.097577,119.107367 257.191273,124.680245 C193.284969,130.253123 146.011137,186.408501 151.602214,250.10679 C157.193291,313.80508 213.53205,360.925036 277.438354,355.352158 Z" id="Oval-6-Copy-6" stroke="#A5A6A8" stroke-width="2" stroke-linecap="round" stroke-linejoin="round" stroke-dasharray="32,70,1,103" transform="translate(267.314814, 240.016202) rotate(236.000000) translate(-267.314814, -240.016202) "></path>
                        <g id="Group-10" transform="translate(211.000000, 13.000000)">
                            <g id="Group-5">
                                <path d="M16.672507,72.5982202 C12.8494132,72.5982202 10.1782842,68.2149721 9.80413757,63.9771268 L12.1966415,63.7640021 C12.4988369,67.1861973 14.5901379,70.1876205 16.672507,70.1876205 C18.9918191,70.1876205 21.1853405,66.6601079 21.1853405,62.9289318 C21.210188,61.817197 20.9681738,60.7157765 20.4797218,59.7176205 L22.6132012,58.6099198 C23.2794801,59.9499631 23.6136309,61.4315804 23.5872726,62.9289318 C23.5872726,67.5023986 20.7476783,72.5982202 16.672507,72.5982202 Z" id="Shape" fill="#63666A"></path>
                                <path d="M8.27802622,67.6694625 C7.78184893,66.1916054 7.5258385,64.6432654 7.51980866,63.0837957 C7.51980866,57.6877074 10.8789407,53.771292 15.5071445,53.771292 C18.6770347,53.7696135 21.5196123,55.7298626 22.6543871,58.7000497 L23.4612338,60.6079639 L21.4093819,60.3672027 C20.6906209,60.2830573 19.9650104,60.2753794 19.244641,60.3442968 C15.1342029,60.7162841 11.6826334,63.6031857 10.5774897,67.5935244 L8.27802622,67.6694625 Z M9.92198879,63.0837957 C9.92198879,63.1614767 9.92248501,63.2391577 9.92422176,63.3173366 C12.0121214,60.264246 15.3409364,58.2966283 19.0141488,57.9444031 C19.1310076,57.9331991 19.247701,57.923738 19.364229,57.9160197 C18.388703,56.8057499 16.9821638,56.1733761 15.5071445,56.1818917 C12.218475,56.1818917 9.92198879,59.0202347 9.92198879,63.0837957 Z" id="Shape" fill="#63666A"></path>
                                <rect id="Rectangle-path" fill="#63666A" transform="translate(8.100641, 87.646325) rotate(-87.229780) translate(-8.100641, -87.646325) " x="4.31116627" y="86.4408633" width="7.57895029" height="2.41092339"></rect>
                                <rect id="Rectangle-path" fill="#63666A" transform="translate(26.116962, 87.646308) rotate(-2.780820) translate(-26.116962, -87.646308) " x="24.9157107" y="83.8435507" width="2.40250268" height="7.60551431"></rect>
                                <use id="Shape" stroke="#63666A" mask="url(#mask-2)" stroke-width="4" fill="#FFFFFF" xlink:href="#path-1"></use>
                                <rect id="Rectangle-path" fill="#63666A" x="15.6867745" y="78.6097808" width="2.40193203" height="12.8347878"></rect>
                                <rect id="Rectangle-path" fill="#63666A" transform="translate(50.276499, 87.646313) rotate(-87.229780) translate(-50.276499, -87.646313) " x="46.4870242" y="86.4408512" width="7.57895029" height="2.41092339"></rect>
                                <rect id="Rectangle-path" fill="#63666A" transform="translate(68.292722, 87.646295) rotate(-2.780910) translate(-68.292722, -87.646295) " x="67.0913465" y="83.8435376" width="2.40275079" height="7.60551431"></rect>
                                <polygon id="Shape" fill="#63666A" points="59.0289818 82.7871246 52.8833505 79.281522 52.8833505 74.5609095 55.2850344 74.5609095 55.2850344 77.8797789 59.0488304 80.0259646 62.9639722 77.8673301 62.9639722 74.5733583 65.3681372 74.5733583 65.3681372 79.2939709"></polygon>
                                <path d="M74.3580767,92.6496195 L43.8931628,92.6496195 L43.8931628,87.3267305 L47.7033549,73.3456505 L56.5469109,73.3573524 L56.7967555,74.2277776 C56.9848499,75.2809071 57.8970121,76.0480383 58.9631848,76.0497515 C60.0293576,76.0514646 60.9439632,75.2872686 61.1354173,74.234749 L61.3874949,73.3643238 L70.5228257,73.3767727 L74.3580767,87.3518772 L74.3580767,92.6496195 L74.3580767,92.6496195 Z M46.2953429,90.2392688 L71.9558966,90.2392688 L71.9558966,87.6780377 L68.6917898,75.7848826 L63.1071304,75.7771643 C62.3715694,77.4124649 60.7484834,78.4626613 58.9605786,78.4601362 C57.1726739,78.4576111 55.5525401,77.4028341 54.821569,75.7654624 L49.5366238,75.758491 L46.2953429,87.6504012 L46.2953429,90.2392688 L46.2953429,90.2392688 Z" id="Shape" fill="#63666A"></path>
                                <path d="M68.4642749,68.856338 L63.8869333,68.856338 L63.8869333,66.4459873 L66.5605434,66.4459873 C66.699609,65.6617789 66.7693504,64.866773 66.768954,64.0702444 C66.768954,58.3621873 63.2870086,53.7182598 59.0076445,53.7182598 C54.7282804,53.7182598 51.246583,58.3621873 51.246583,64.0702444 C51.24605,64.8668009 51.3159598,65.6618335 51.4554898,66.4459873 L54.3643062,66.4459873 L54.3643062,68.856338 L49.5525027,68.856338 L49.3225067,67.9478193 C49.0037055,66.6801613 48.8431893,65.3776473 48.844651,64.0702444 C48.844651,57.0328966 53.4036326,51.3079091 59.0076445,51.3079091 C64.6116563,51.3079091 69.1708861,57.0328966 69.1708861,64.0702444 C69.1721603,65.3774411 69.0118158,66.6797468 68.6935266,67.9473213 L68.4642749,68.856338 Z" id="Shape" fill="#63666A"></path>
                                <path d="M59.1257438,72.6206282 C54.9319769,72.6206282 52.0090184,67.3669549 52.0090184,62.6518198 C52.0073211,62.0108933 52.0617001,61.3710545 52.1715291,60.739673 L52.3960667,59.469888 L53.6428086,59.7806118 C57.2461494,60.6414464 61.0010083,60.6373519 64.6024763,59.7686609 L65.8499626,59.4544514 L66.0767332,60.7244854 C66.1883624,61.3607842 66.2437405,62.0057375 66.2422211,62.6518198 C66.2422211,67.3669549 63.3192626,72.6206282 59.1257438,72.6206282 Z M54.4141759,62.4135484 C54.4124391,62.4924743 54.4111986,62.5718981 54.4111986,62.6518198 C54.4111986,66.537113 56.7024745,70.2100284 59.1257438,70.2100284 C61.5490131,70.2100284 63.8400409,66.537113 63.8400409,62.6518198 C63.8400409,62.5681634 63.8390485,62.4852539 63.8365674,62.4028424 C60.7216451,62.9714374 57.5303733,62.9750634 54.4141759,62.4135484 Z" id="Shape" fill="#63666A"></path>
                                <use id="Shape" stroke="#63666A" mask="url(#mask-4)" stroke-width="4" fill="#FFFFFF" xlink:href="#path-3"></use>
                                <rect id="Rectangle-path" fill="#63666A" transform="translate(92.452097, 87.646325) rotate(-87.229780) translate(-92.452097, -87.646325) " x="88.662622" y="86.4408638" width="7.57895029" height="2.41092339"></rect>
                                <rect id="Rectangle-path" fill="#63666A" transform="translate(110.468442, 87.646271) rotate(-2.780920) translate(-110.468442, -87.646271) " x="109.267191" y="83.8435139" width="2.40250268" height="7.60551431"></rect>
                                <path d="M101.04282,72.6206282 C96.8490527,72.6206282 93.9260942,67.3669549 93.9260942,62.6518198 C93.9260942,57.8585059 96.918771,54.3797929 101.04282,54.3797929 C105.166868,54.3797929 108.159793,57.8585059 108.159793,62.6518198 C108.159793,67.3669549 105.237083,72.6206282 101.04282,72.6206282 Z M101.04282,56.7903926 C98.266989,56.7903926 96.3282744,59.2007433 96.3282744,62.6518198 C96.3282744,66.537113 98.6195503,70.2100284 101.04282,70.2100284 C103.466585,70.2100284 105.757861,66.537113 105.757861,62.6518198 C105.757861,59.2007433 103.818898,56.7903926 101.04282,56.7903926 Z" id="Shape" fill="#63666A"></path>
                                <polygon id="Shape" fill="#63666A" points="96.0888503 64.0391222 94.2032307 62.5477473 97.7065134 58.0835815 107.156941 60.2720933 106.618547 62.6199507 98.6493232 60.7750278"></polygon>
                                <polygon id="Shape" fill="#63666A" points="104.050631 79.789436 98.0439401 79.789436 97.4608867 74.7003368 99.8476841 74.4264616 100.185111 77.3793343 101.90946 77.3793343 102.246887 74.4314412 104.633684 74.7078062"></polygon>
                                <use id="Shape" stroke="#63666A" mask="url(#mask-6)" stroke-width="4" fill="#FFFFFF" xlink:href="#path-5"></use>
                                <ellipse id="Oval-3" stroke="#00B5E2" stroke-width="3.6" cx="31.3061224" cy="20.5324675" rx="3.6122449" ry="3.62337662"></ellipse>
                                <ellipse id="Oval-3-Copy-3" stroke="#00B5E2" stroke-width="3.6" cx="59" cy="20.5324675" rx="3.6122449" ry="3.62337662"></ellipse>
                                <ellipse id="Oval-3-Copy-4" stroke="#00B5E2" stroke-width="3.6" cx="86.6938776" cy="20.5324675" rx="3.6122449" ry="3.62337662"></ellipse>
                            </g>
                        </g>
                        <g id="Group-12" transform="translate(412.000000, 290.000000)">
                            <g id="Group-4">
                                <circle id="Oval-2" stroke="#63666A" stroke-width="2" fill="#FFFFFF" cx="47.5" cy="49.5" r="47.5"></circle>
                                <polygon id="Shape" fill="#63666A" points="49.2302 79.0274752 32.5516337 63.2219802 34.6364545 61.1145808 49.2302 75.8663762 62.7815352 61.1145808 64.866356 63.2219802"></polygon>
                                <path d="M17.9578882,85.2959735 L15.8730674,85.2959735 C16.9757048,70.8944593 26.1533351,60.943149 41.9333273,59.0071815 L41.9333273,53.7386831 L44.0181481,53.7386831 L44.0181481,61.1145808 L42.9757377,61.1145808 C32.3944914,62.1630967 19.4557694,68.2036019 17.9578882,85.2959735 Z" id="Shape" fill="#63666A"></path>
                                <path d="M48.1877896,55.8460825 C38.3590772,55.8460825 31.5092233,43.3057716 31.5092233,31.6109901 C31.5092233,20.6245043 38.3678041,12.644396 48.1877896,12.644396 C58.0072766,12.644396 64.866356,20.6245043 64.866356,31.6109901 C64.866356,43.3057716 58.0165021,55.8460825 48.1877896,55.8460825 Z M48.1877896,14.7517954 C39.5950689,14.7517954 33.5940441,21.8588189 33.5940441,31.6109901 C33.5940441,43.3945394 40.5501103,53.7386831 48.1877896,53.7386831 C55.8252164,53.7386831 62.7815352,43.3945394 62.7815352,31.6109901 C62.7815352,21.8588189 56.7805104,14.7517954 48.1877896,14.7517954 Z" id="Shape" fill="#63666A"></path>
                                <path d="M33.5940441,36.8794884 L32.5516337,34.7720891 C36.2695964,31.4042223 38.9932194,26.7783639 40.8909169,22.1276931 L40.8909169,20.0202937 L41.9333273,21.0739934 C48.1181413,27.1125508 55.7201622,30.7672551 63.8239456,31.6109901 L63.8239456,33.7183894 C55.5683675,33.1153977 47.9880758,29.6708614 41.9333273,24.2350924 C40.3965683,28.9912061 37.642544,33.4033582 33.5940441,36.8794884 L33.5940441,36.8794884 Z" id="Shape" fill="#63666A"></path>
                                <path d="M138,62 L85,62 C80.4604446,61.9959291 77.4951668,58.9812617 77,56 L77,48 L69,39 L77,30 L77,6 C77.4951806,3.01853494 80.4604899,0.00394706352 85,0 L139,0 C142.030075,0.00374065392 144.995643,3.01836877 145,6 L145,56 C144.995671,58.9814336 142.030126,61.9961493 139,62 L138,62 Z" id="Shape" stroke="#63666A" stroke-width="2" fill="#FFFFFF"></path>
                                <rect id="Rectangle-path" fill="#63666A" x="88.8417951" y="9.48329702" width="25.0178495" height="2.10739934"></rect>
                                <rect id="Rectangle-path" fill="#63666A" x="118.029286" y="9.48329702" width="3.12723119" height="2.10739934"></rect>
                                <rect id="Rectangle-path" fill="#63666A" x="124.283749" y="9.48329702" width="8.33928316" height="2.10739934"></rect>
                                <rect id="Rectangle-path" fill="#63666A" x="124.283749" y="16.8591947" width="8.33928316" height="2.10739934"></rect>
                                <polygon id="Rectangle-path" fill="#63666A" points="122.198928 24.2350924 132.623032 24.2350924 132.623032 26.3424917 122.198928 26.3424917"></polygon>
                                <rect id="Rectangle-path" fill="#63666A" x="107.605182" y="24.2350924" width="11.4665144" height="2.10739934"></rect>
                                <polygon id="Rectangle-path" fill="#63666A" points="109.690003 16.8591947 119.071697 16.8591947 119.071697 18.966594 109.690003 18.966594"></polygon>
                                <rect id="Rectangle-path" fill="#63666A" x="88.8417951" y="16.8591947" width="13.5513351" height="2.10739934"></rect>
                                <ellipse id="Oval-3" stroke="#00B5E2" stroke-width="3.6" cx="93.3442623" cy="38.7160494" rx="3.59016393" ry="3.62962963"></ellipse>
                                <ellipse id="Oval-3-Copy" stroke="#00B5E2" stroke-width="3.6" cx="112.491803" cy="38.7160494" rx="3.59016393" ry="3.62962963"></ellipse>
                                <ellipse id="Oval-3-Copy-2" stroke="#00B5E2" stroke-width="3.6" cx="131.639344" cy="38.7160494" rx="3.59016393" ry="3.62962963"></ellipse>
                                <path d="M78.8074896,84.3109607 C77.4977147,67.1158997 64.7026567,62.0451116 54.1991519,60.8190783 L53.2080373,60.7029173 L53.2080373,53.5700849 L55.4472585,53.5700849 L55.4472585,58.692362 C70.8743964,60.8178346 79.9499493,69.8229235 81.0400771,84.137341 L78.8074896,84.3109607 Z" id="Shape" fill="#63666A"></path>
                                <rect id="Rectangle-path" fill="#63666A" x="48.2339843" y="77.3594589" width="2.23946683" height="19.3376966"></rect>
                            </g>
                        </g>
                        <g id="Group-13" transform="translate(0.000000, 276.000000)">
                            <g id="Group-2">
                                <circle id="Oval-4" stroke="#63666A" stroke-width="2" fill="#FFFFFF" cx="63" cy="63" r="40"></circle>
                                <polygon id="Shape" fill="#63666A" points="62.3715704 84.6318197 50.0568271 72.3522369 51.819623 70.5948283 62.3715704 81.1145274 72.9185521 70.602254 74.7285215 72.3101581 74.681348 72.3596625"></polygon>
                                <path d="M37.4211805,94.9502831 C37.2597978,93.3545066 37.1783616,91.8134326 37.1783616,90.3693873 C37.1783616,77.8058964 44.4279218,72.5245124 50.509816,70.3067123 C52.4765931,69.600729 54.5108082,69.0976899 56.5805375,68.8054894 L56.5805375,65.3456223 L59.074273,65.3456223 L59.074273,71.0015075 L57.9716566,71.1294766 C55.7186049,71.3742157 53.5021206,71.8815543 51.3676273,72.6410954 C43.6066079,75.4712657 39.6720971,81.4363064 39.6720971,90.3693873 C39.6765032,91.8162868 39.7535668,93.2620592 39.9029985,94.7012756 L39.9089573,94.8257793 L38.5987778,94.8324624 L37.4211805,94.9502831 Z" id="Shape" fill="#63666A"></path>
                                <path d="M87.3168705,94.9604315 L84.8362939,94.7032558 C84.9899037,93.2636558 85.0687967,91.8171045 85.0726575,90.3693873 C85.0726575,81.4350688 81.1364087,75.4727509 73.3729066,72.6482736 C71.239016,71.8832291 69.0215822,71.3733971 66.7671392,71.1294766 L65.6642745,71.0015075 L65.6642745,65.3456223 L68.1582832,65.3456223 L68.1582832,68.8054894 C70.2300953,69.0979274 72.265938,69.6035928 74.2332006,70.3143855 C80.312612,72.5262451 87.5664179,77.8034211 87.5664179,90.3693873 C87.5626456,91.9029999 87.479352,93.4353929 87.3168705,94.9604315 Z" id="Shape" fill="#63666A"></path>
                                <path d="M62.3724145,68.0800014 C60.48829,68.0571078 58.6565361,67.4586698 57.1242483,66.3654143 C52.7674962,62.8637697 50.0698948,57.7117769 49.6790426,52.1462465 C49.6000597,51.374996 49.5604492,50.6002417 49.5603642,49.8249821 C49.5603642,41.1525422 54.9488092,34.8578018 62.3724145,34.8578018 C69.8538694,34.8578018 75.1199118,40.9532867 75.1782579,49.679934 L75.1782579,49.8249821 C75.1782579,56.536055 72.0677921,63.3406914 67.6146468,66.3720974 C66.0833872,67.4621435 64.2538434,68.0582036 62.3724145,68.0800014 L62.3724145,68.0800014 Z M62.3724145,37.3441636 C56.297224,37.3441636 52.054348,42.4762916 52.054348,49.8249821 C52.0541896,50.5154196 52.0893256,51.2054166 52.1596192,51.8922886 C52.4674468,56.73321 54.7744453,61.2303103 58.5312574,64.3127116 C60.8063705,66.0098967 63.930385,66.0125155 66.2083578,64.3191472 C70.4780291,60.7302357 72.8642146,55.3897856 72.6845472,49.8249821 L72.6845472,49.6883497 C72.6358593,42.4235693 68.3957144,37.3441636 62.3724145,37.3441636 Z" id="Shape" fill="#63666A"></path>
                                <path d="M52.0088132,52.6645582 L50.4332213,50.7378444 C53.1810012,48.1369835 55.1952414,44.8621313 56.2742828,41.2411552 L56.9257724,39.5013207 L58.290822,40.7644271 C62.65802,44.9560857 68.3182215,47.5529633 74.3524004,48.1334144 L74.1003702,50.6074001 C68.142737,50.0482184 62.5044542,47.6654923 57.9586219,43.7859322 C56.7587015,47.1986239 54.7118722,50.2530132 52.0088132,52.6645582 L52.0088132,52.6645582 Z" id="Shape" fill="#63666A"></path>
                                <path d="M115.03748,120.183947 C113.460253,120.133606 111.967954,119.459604 110.889944,118.310698 C109.056419,116.620956 108.239078,114.100533 108.733374,111.660516 C109.078692,110.468747 110.015012,109.538095 111.211468,109.197421 C111.657143,109.066212 112.119772,109.001158 112.584463,109.004353 C114.582131,109.086921 116.473007,109.925942 117.871609,111.35037 C118.964692,112.249495 119.637829,113.557942 119.732497,114.967572 C119.827164,116.377203 119.334995,117.763431 118.371895,118.799802 C117.490597,119.686843 116.28982,120.185296 115.03748,120.183947 Z M112.584463,111.490468 C112.363356,111.487503 112.143012,111.516942 111.93049,111.577843 C111.534632,111.677936 111.224665,111.98468 111.121342,112.378578 C110.91189,113.936518 111.48474,115.497461 112.653236,116.552794 C113.102816,117.153829 113.778875,117.546014 114.525157,117.638705 C115.27144,117.731396 116.023355,117.516569 116.607113,117.043879 C117.094045,116.467642 117.317129,115.714682 117.222394,114.967163 C117.127658,114.219644 116.723733,113.545662 116.108341,113.108274 C115.173005,112.155666 113.918578,111.579761 112.584463,111.490468 Z" id="Shape" fill="#63666A"></path>
                                <path d="M104.895693,115.156769 C102.471712,115.036702 100.20338,113.930117 98.6208844,112.09566 C98.5841388,112.058779 95.4269961,108.85089 94.847508,108.073422 L94.2052047,107.211302 L106.732725,94.7220675 L107.595502,95.3520118 C108.354249,95.9057193 111.302835,98.7809386 111.642484,99.1237571 C116.357342,103.823711 114.775792,107.803128 112.605815,111.074878 L110.525716,109.704347 C112.592904,106.58606 113.149302,104.141777 109.873729,100.876215 C109.352091,100.349983 107.877301,98.9319273 106.918439,98.053223 L97.5547653,107.388033 C98.3994176,108.3004 99.7393908,109.687268 100.389142,110.342707 C103.662481,113.600348 106.113512,113.046393 109.238626,110.98676 L110.613359,113.061492 C108.955049,114.304227 106.966547,115.032927 104.895693,115.156769 Z" id="Shape" fill="#63666A"></path>
                                <path d="M13.1586286,17.9458288 C11.1613858,17.863269 9.27104389,17.0239043 7.8734685,15.5990696 C6.79921332,14.5965934 6.13273529,13.2349339 6.00118062,11.7738595 C5.91969542,10.4778143 6.37823715,9.20568145 7.26855344,8.25778547 C8.15886972,7.30988949 9.40205482,6.77023925 10.7046181,6.7662352 C12.2807686,6.81718947 13.7718382,7.49116072 14.8489264,8.63948419 C16.6827414,10.32871 17.4999207,12.849223 17.0047513,15.2889241 C16.6603922,16.4806046 15.7247006,17.4114723 14.5286438,17.7522663 C14.0840938,17.8840095 13.6223913,17.9492411 13.1586286,17.9458288 L13.1586286,17.9458288 Z M10.7046181,9.25259701 C10.0911175,9.25641926 9.50622365,9.5117399 9.08730506,9.95859417 C8.66838647,10.4054484 8.45235593,11.004462 8.48995051,11.6149501 C8.58797008,12.4713743 8.99556829,13.262873 9.6365127,13.8414135 C10.5711438,14.7940359 11.8250043,15.370057 13.1586286,15.459467 C13.3779538,15.4626464 13.5965282,15.4331973 13.8071389,15.3720916 C14.0026045,15.320126 14.1814359,15.2190524 14.3265429,15.0785301 C14.4652555,14.936724 14.5654058,14.7619966 14.6175284,14.5708618 C14.8267395,13.0130936 14.2539161,11.4524083 13.0856339,10.3971403 C12.4734401,9.71881515 11.6182235,9.3077165 10.7046181,9.25259701 L10.7046181,9.25259701 Z" id="Shape" fill="#63666A"></path>
                                <path d="M19.0061702,32.2276197 L18.1433934,31.5974279 C17.4005363,31.0556015 14.4616327,28.1880553 14.1036113,27.8276628 C9.38453219,23.1227583 10.9643449,19.1450745 13.1333287,15.8753045 L15.2129314,17.2458356 C13.1472325,20.3616467 12.5923242,22.8054347 15.8711246,26.0739671 C16.3473278,26.5529228 17.8479388,28.0011759 18.8209525,28.8959691 L28.1863644,19.5599219 C27.3198633,18.6220598 25.9275029,17.18346 25.3559597,16.6136636 C22.0791456,13.3466163 19.6301007,13.9003238 16.5074691,15.9621848 L15.1300055,13.8886903 C18.4075645,11.7253451 22.3962006,10.1466477 27.1182591,14.8550174 C27.3764714,15.1116981 30.3441756,18.1309755 30.8968494,18.884681 L31.5277317,19.744326 L19.0061702,32.2276197 Z" id="Shape" fill="#63666A"></path>
                                <path d="M20.8466533,114.159739 C18.7756293,114.035397 16.7872693,113.305417 15.1299806,112.060997 L16.5074443,109.987255 C19.6308207,112.049858 22.0796173,112.602823 25.3551901,109.337261 C25.8659043,108.828108 27.2984863,107.351885 28.1863396,106.391003 L18.8209277,97.053718 C17.8469209,97.9485113 16.3477995,99.3960219 15.8760654,99.8712647 C12.5922994,103.144995 13.1472077,105.588536 15.2129065,108.704347 L13.1333039,110.074878 C10.9643201,106.80486 9.38450737,102.827424 14.1080556,98.1183116 C14.4596216,97.7633646 17.3940561,94.8987886 18.1433685,94.3520118 L19.0061454,93.7220675 L31.5282034,106.205856 L30.896328,107.065996 C30.3421645,107.820444 27.4161716,110.798386 27.1182342,111.095165 C25.5379617,112.93121 23.2703728,114.039255 20.8466533,114.159739 L20.8466533,114.159739 Z" id="Shape" fill="#63666A"></path>
                                <path d="M112.583718,16.9458288 C112.115809,16.9488775 111.650028,16.8828148 111.201537,16.7497911 C110.006414,16.4054091 109.073098,15.4722333 108.73114,14.2797658 C108.24032,11.8424939 109.058344,9.32632808 110.889944,7.63948419 C111.968144,6.49055627 113.460603,5.81656292 115.037977,5.7662352 C116.289369,5.76475173 117.489344,6.26245558 118.370406,7.14839989 C119.334369,8.18449365 119.827237,9.57095149 119.732841,10.9809829 C119.638444,12.3910143 118.965133,13.6998769 117.871609,14.5990696 C116.473128,16.0242099 114.581826,16.863567 112.583718,16.9458288 Z M115.037977,8.25259701 C114.123143,8.30709453 113.26654,8.71821649 112.653236,9.39714026 C111.486973,10.4499989 110.913477,12.006565 111.118859,13.5617035 C111.170997,13.7562223 111.272293,13.9341642 111.413072,14.0785301 C111.554871,14.2169942 111.729819,14.3170241 111.921304,14.3691213 C113.481958,14.5586816 115.039122,13.9905254 116.108341,12.8414135 C116.724221,12.4040225 117.128359,11.7296088 117.22279,10.9816505 C117.317221,10.2336922 117.093325,9.48047199 116.605375,8.90457082 C116.193026,8.4846074 115.627445,8.24934884 115.037977,8.25259701 L115.037977,8.25259701 Z" id="Shape" fill="#63666A"></path>
                                <path d="M106.732725,31.2276197 L94.2057013,18.7388805 L94.847508,17.8775028 C95.4235202,17.1035005 98.5846602,13.8909082 98.6156705,13.8597204 C103.345177,9.15283572 107.335055,10.7285629 110.613359,12.8881952 L109.238626,14.9626799 C106.113512,12.9040366 103.662977,12.3503292 100.383184,15.6136636 C99.756547,16.2453406 98.4048798,17.6438417 97.5547653,18.5621496 L106.918439,27.8959691 C107.875563,27.0180074 109.349608,25.6021797 109.869037,25.07867 C113.149302,21.808405 112.592904,19.3638744 110.525716,16.2458356 L112.605815,14.8753045 C114.775792,18.1470546 116.357342,22.1264711 111.637022,26.8316231 C111.300849,27.1704812 108.347545,30.0486709 107.595502,30.5974279 L106.732725,31.2276197 Z" id="Shape" fill="#63666A"></path>
                                <rect id="Rectangle-path" fill="#63666A" transform="translate(29.594289, 30.296755) rotate(-45.018440) translate(-29.594289, -30.296755) " x="28.3470985" y="22.955082" width="2.49438105" height="14.6833464"></rect>
                                <rect id="Rectangle-path" fill="#63666A" transform="translate(96.147637, 96.653104) rotate(-45.000000) translate(-96.147637, -96.653104) " x="94.9008066" y="89.3134482" width="2.49366103" height="14.6793118"></rect>
                                <rect id="Rectangle-path" fill="#63666A" transform="translate(96.147663, 29.296850) rotate(-45.004030) translate(-96.147663, -29.296850) " x="88.7855941" y="28.0539162" width="14.7241377" height="2.48586676"></rect>
                                <rect id="Rectangle-path" fill="#63666A" transform="translate(29.594287, 95.653126) rotate(-44.975800) translate(-29.594287, -95.653126) " x="22.2297976" y="94.4097098" width="14.7289792" height="2.4868321"></rect>
                                <rect id="Rectangle-path" fill="#63666A" x="61.1255468" y="8.34319996" width="2.49373551" height="10.2246524"></rect>
                                <rect id="Rectangle-path" fill="#63666A" x="61.1255468" y="107.381587" width="2.49373551" height="10.2246524"></rect>
                                <rect id="Rectangle-path" fill="#63666A" x="106.918764" y="61.7288162" width="10.2500375" height="2.48636181"></rect>
                                <rect id="Rectangle-path" fill="#63666A" x="7.57677257" y="61.7288162" width="10.2492927" height="2.48636181"></rect>
                                <path d="M16.696709,111.783524 C16.5330114,113.769678 15.6151474,115.618671 14.1304754,116.953078 C13.0822069,117.982538 11.6904773,118.591241 10.2207926,118.663061 C8.91854317,118.691696 7.66214859,118.18337 6.74821675,117.258086 C5.83428491,116.332802 5.34381409,115.072566 5.39259395,113.774891 C5.50754672,112.206919 6.24346054,110.748949 7.43800826,109.722579 C9.20535079,107.964337 11.7646389,107.252487 14.1897401,107.844627 C15.3701738,108.235925 16.2652452,109.205728 16.5583419,110.410988 C16.6723264,110.859155 16.7189569,111.321707 16.696709,111.783524 L16.696709,111.783524 Z M7.88451701,113.875657 C7.86344707,114.486956 8.09561741,115.079963 8.52649682,115.515397 C8.95737624,115.950831 9.54899527,116.19032 10.1623969,116.177615 C11.0247276,116.114664 11.8345242,115.740692 12.4403265,115.125645 C13.4329658,114.233246 14.0610982,113.007591 14.2047611,111.682758 C14.2168416,111.464409 14.1961891,111.245485 14.1434853,111.03321 C14.0993405,110.836406 14.005309,110.654176 13.8703761,110.503933 C13.7338761,110.360008 13.5628173,110.253161 13.3733669,110.19349 C11.8205883,109.921954 10.2331903,110.429302 9.12820677,111.550284 C8.42349743,112.132623 7.97678399,112.967904 7.88451701,113.875781 L7.88451701,113.875657 Z" id="Shape" fill="#63666A"></path>
                                <ellipse id="Oval-3" stroke="#00B5E2" stroke-width="3.6" cx="62.5" cy="3.6" rx="3.60576923" ry="3.6"></ellipse>
                                <ellipse id="Oval-3" stroke="#00B5E2" stroke-width="3.6" cx="62.5" cy="122.4" rx="3.60576923" ry="3.6"></ellipse>
                                <ellipse id="Oval-3" stroke="#00B5E2" stroke-width="3.6" cx="121.394231" cy="62.4" rx="3.60576923" ry="3.6"></ellipse>
                                <ellipse id="Oval-3" stroke="#00B5E2" stroke-width="3.6" cx="3.60576923" cy="62.4" rx="3.60576923" ry="3.6"></ellipse>
                                <rect id="Rectangle-path" fill="#63666A" x="61.1255468" y="84.0769167" width="2.49373551" height="19.8156477"></rect>
                            </g>
                        </g>
                    </g>
                </g>
            </g>
        </g>
    </g>
</svg>